<svg version="1.1" xmlns="http://www.w3.org/2000/svg" viewBox="0 0 516 596.2889000065625" width="516" height="596.2889000065625">
  <!-- svg-source:excalidraw -->
  
  <defs>
    <style>
      @font-face {
        font-family: "Virgil";
        src: url("https://excalidraw.com/Virgil.woff2");
      }
      @font-face {
        font-family: "Cascadia";
        src: url("https://excalidraw.com/Cascadia.woff2");
      }
    </style>
  </defs>
  <rect x="0" y="0" width="516" height="596.2889000065625" fill="#ffffff"></rect><g stroke-linecap="round" transform="translate(204.94444444444446 61.19444444444443) rotate(0 118 252)"><path d="M-1.56 -0.06 C77.7 3.37, 157.41 1.05, 234.98 -0.4 M0.09 0.54 C54.22 0.91, 108.43 1.01, 236.16 0.25 M236.63 -0.19 C234.18 156.05, 234.81 309.96, 235.74 503.58 M236.18 0.13 C235.13 186.53, 235.26 373.76, 235.89 504.26 M235.47 502.53 C146.04 504.92, 55.07 503.03, -1.39 504.07 M235.41 504.37 C186.45 502.48, 136.1 502.75, -0.25 504.01 M0.58 504.09 C-1.12 402.31, -1.33 299.58, -0.46 -0.33 M-0.06 504.3 C2.11 363.65, 1.83 223.78, 0.18 -0.08" stroke="#000000" stroke-width="1" fill="none"></path></g><g transform="translate(295 10) rotate(0 21 13)"><text x="0" y="18" font-family="Virgil, Segoe UI Emoji" font-size="20px" fill="#000000" text-anchor="start" style="white-space: pre;" direction="ltr">300</text></g><g transform="translate(465 296.25) rotate(0 20.5 13)"><text x="0" y="18" font-family="Virgil, Segoe UI Emoji" font-size="20px" fill="#000000" text-anchor="start" style="white-space: pre;" direction="ltr">600</text></g><g stroke-linecap="round"><g transform="translate(457.5 66.5) rotate(0 0.002595219416548389 249.86734586908017)"><path d="M0.14 1.11 C0.41 84.15, 1.18 416.33, 1.26 499.08 M-1.25 0.65 C-1.03 83.27, 0.57 414.39, 0.77 497.38" stroke="#000000" stroke-width="1" fill="none"></path></g><g transform="translate(457.5 66.5) rotate(0 0.002595219416548389 249.86734586908017)"><path d="M16.53 2.17 C12.11 1.34, 6.25 0.5, -0.19 -0.26 M15.62 0.94 C10.62 1.82, 6.5 1.06, -0.48 1.1" stroke="#000000" stroke-width="1" fill="none"></path></g><g transform="translate(457.5 66.5) rotate(0 0.002595219416548389 249.86734586908017)"><path d="M-13.47 2.24 C-9.86 1.36, -7.68 0.5, -0.19 -0.26 M-14.38 1.02 C-10.41 1.65, -5.55 0.87, -0.48 1.1" stroke="#000000" stroke-width="1" fill="none"></path></g><g transform="translate(457.5 66.5) rotate(0 0.002595219416548389 249.86734586908017)"><path d="M-12.84 498.52 C-9.23 497.64, -7.05 496.77, 0.44 496 M-13.75 497.3 C-9.77 497.92, -4.92 497.14, 0.15 497.37" stroke="#000000" stroke-width="1" fill="none"></path></g><g transform="translate(457.5 66.5) rotate(0 0.002595219416548389 249.86734586908017)"><path d="M17.16 498.41 C12.74 497.59, 6.88 496.76, 0.44 496 M16.25 497.19 C11.26 498.07, 7.14 497.32, 0.15 497.37" stroke="#000000" stroke-width="1" fill="none"></path></g></g><g stroke-linecap="round"><g transform="translate(436.25 45.25) rotate(0 -116.69397082385609 -0.6489665634930191)"><path d="M-0.85 0.61 C-39.66 0.33, -194.59 -1.8, -233.48 -1.91 M0.9 -0.12 C-37.99 -0.22, -194.94 -0.44, -234.29 -0.71" stroke="#000000" stroke-width="1" fill="none"></path></g><g transform="translate(436.25 45.25) rotate(0 -116.69397082385609 -0.6489665634930191)"><path d="M-0.27 15.95 C-1.77 11.32, 0.58 7.01, 0.14 -0.04 M-1.1 15.46 C-1.44 11.9, -1.5 6.38, -0.59 0.53" stroke="#000000" stroke-width="1" fill="none"></path></g><g transform="translate(436.25 45.25) rotate(0 -116.69397082385609 -0.6489665634930191)"><path d="M0.08 -14.05 C-1.58 -11.23, 0.69 -8.07, 0.14 -0.04 M-0.76 -14.53 C-1.15 -9.5, -1.3 -6.42, -0.59 0.53" stroke="#000000" stroke-width="1" fill="none"></path></g><g transform="translate(436.25 45.25) rotate(0 -116.69397082385609 -0.6489665634930191)"><path d="M-233.47 -15.37 C-235.1 -12.55, -232.8 -9.4, -233.29 -1.36 M-234.3 -15.86 C-234.66 -10.82, -234.78 -7.74, -234.02 -0.79" stroke="#000000" stroke-width="1" fill="none"></path></g><g transform="translate(436.25 45.25) rotate(0 -116.69397082385609 -0.6489665634930191)"><path d="M-233.58 14.62 C-235.12 10, -232.79 5.69, -233.29 -1.36 M-234.41 14.14 C-234.79 10.58, -234.88 5.06, -234.02 -0.79" stroke="#000000" stroke-width="1" fill="none"></path></g></g><g stroke-linecap="round" transform="translate(205 525.1803577976581) rotate(0 117.5 18.5)"><path d="M0.74 0.11 C81.19 -0.35, 162.27 -1.77, 235.04 0.62 M-0.78 -0.81 C47.94 0.79, 97.1 1.14, 234.97 -0.26 M235.21 1.21 C237.32 14.45, 234.56 30.11, 235.83 38.64 M234.07 -0.57 C233.98 14.3, 233.97 26.92, 234.05 37.79 M234.36 35.92 C161.32 37.46, 89.78 34.8, -1.38 38.11 M235.47 36.29 C187.73 36.09, 138.52 36.33, 0.49 36.62 M1.18 37.15 C0.17 22.63, -1.67 9.84, 1.51 1.32 M0.33 37.91 C-0.2 26.57, 0.05 16.9, 0.27 0.33" stroke="#000000" stroke-width="1" fill="none"></path></g><g stroke-linecap="round"><g transform="translate(391.21115973931524 516.1509797158883) rotate(0 0.03884026068476487 22.27937808176972)"><path d="M-0.84 0.7 C-0.53 8.19, 0.49 37.31, 0.7 44.54 M0.92 0.02 C1.13 7.21, -0.87 35.85, -0.53 42.84" stroke="#000000" stroke-width="1" fill="none"></path></g></g><g stroke-linecap="round"><g transform="translate(344.90006694876126 516.1422614108585) rotate(0 0.09993305123873597 22.288096386799566)"><path d="M0.4 1.09 C0.56 8.22, 0.89 35.9, 1.05 42.88 M-0.85 0.62 C-0.88 7.86, -0.25 36.76, 0 43.96" stroke="#000000" stroke-width="1" fill="none"></path></g></g><g stroke-linecap="round"><g transform="translate(293.5814063626248 516.386888061259) rotate(0 1.4185936373751815 22.043469736399118)"><path d="M1.09 -0.2 C1.13 7.04, 0.49 36.47, 0.38 43.85 M0.21 -1.35 C0.61 6.07, 2.18 37.61, 2.63 45.43" stroke="#000000" stroke-width="1" fill="none"></path></g></g><g stroke-linecap="round"><g transform="translate(253.95718180589847 518.098194983811) rotate(0 -0.20718180589841495 21.582162813846992)"><path d="M-0.2 -0.87 C-0.04 6.1, 1.05 35.43, 1.35 42.93 M-1.76 1.28 C-1.79 8.9, -0.01 37.25, 0.45 44.04" stroke="#000000" stroke-width="1" fill="none"></path></g></g><g stroke-linecap="round"><g transform="translate(207.5 584) rotate(0 22.745679083834403 1.4650557704316611)"><path d="M0.35 1.11 C8.04 1.48, 38.64 2.21, 46.41 2.29 M-0.92 0.64 C6.6 0.7, 37.63 0.91, 45.55 0.71" stroke="#000000" stroke-width="1" fill="none"></path></g><g transform="translate(207.5 584) rotate(0 22.745679083834403 1.4650557704316611)"><path d="M2.16 -13.68 C1.94 -8.13, 0.94 -4.29, -0.91 1.74 M0.85 -13.89 C0.7 -10.16, 0.94 -6.8, 0.54 0.69" stroke="#000000" stroke-width="1" fill="none"></path></g><g transform="translate(207.5 584) rotate(0 22.745679083834403 1.4650557704316611)"><path d="M1.31 16.31 C1.36 12.2, 0.63 6.38, -0.91 1.74 M0 16.1 C0.35 12.89, 0.79 9.32, 0.54 0.69" stroke="#000000" stroke-width="1" fill="none"></path></g><g transform="translate(207.5 584) rotate(0 22.745679083834403 1.4650557704316611)"><path d="M47.04 15.92 C46.91 11.81, 46.02 5.99, 44.29 1.35 M45.73 15.71 C45.95 12.5, 46.27 8.94, 45.74 0.29" stroke="#000000" stroke-width="1" fill="none"></path></g><g transform="translate(207.5 584) rotate(0 22.745679083834403 1.4650557704316611)"><path d="M46.83 -14.08 C46.79 -8.53, 45.95 -4.69, 44.29 1.35 M45.52 -14.29 C45.49 -10.56, 45.86 -7.2, 45.74 0.29" stroke="#000000" stroke-width="1" fill="none"></path></g></g><g stroke-linecap="round"><g transform="translate(226.25 100.24999999999997) rotate(0 0.40020763161777495 200.90795117542146)"><path d="M0.61 0.26 C0.67 67.28, 0.34 334.72, 0.18 401.56" stroke="#000000" stroke-width="1.5" fill="none" stroke-dasharray="1.5 7"></path></g></g><g stroke-linecap="round"><g transform="translate(272.5 102.12499999999997) rotate(0 -0.9308078097045325 200.26167026683694)"><path d="M-0.74 -0.56 C-1.01 66.35, -1.25 334.24, -1.05 401.09" stroke="#000000" stroke-width="1.5" fill="none" stroke-dasharray="1.5 7"></path></g></g><g stroke-linecap="round"><g transform="translate(319.9999999999999 107.12499999999997) rotate(0 -0.8871118982970643 199.85867372676728)"><path d="M-0.74 -0.38 C-0.87 66.4, -1.19 332.97, -0.95 400.1" stroke="#000000" stroke-width="1.5" fill="none" stroke-dasharray="1.5 7"></path></g></g><g stroke-linecap="round"><g transform="translate(368.75 104.62499999999997) rotate(0 -0.5393727667629378 200.96217558458451)"><path d="M-1.06 0.15 C-1.11 67.15, -0.26 334.81, -0.02 401.78" stroke="#000000" stroke-width="1.5" fill="none" stroke-dasharray="1.5 7"></path></g></g><g stroke-linecap="round"><g transform="translate(413.75 105.87499999999997) rotate(0 0.8862855833709204 200.80840468481185)"><path d="M0.6 -0.55 C0.79 66.34, 1.23 335.38, 1.17 402.16" stroke="#000000" stroke-width="1.5" fill="none" stroke-dasharray="1.5 7"></path></g></g><g stroke-linecap="round" transform="translate(210 217.74999999999997) rotate(0 20 6.875)"><path d="M0 0 L40 0 L40 13.75 L0 13.75" stroke="none" stroke-width="0" fill="#4c6ef5"></path><path d="M0 0 C10.83 0, 21.66 0, 40 0 M0 0 C9.25 0, 18.5 0, 40 0 M40 0 C40 3.54, 40 7.07, 40 13.75 M40 0 C40 5.08, 40 10.17, 40 13.75 M40 13.75 C31.68 13.75, 23.36 13.75, 0 13.75 M40 13.75 C26.85 13.75, 13.71 13.75, 0 13.75 M0 13.75 C0 9.56, 0 5.36, 0 0 M0 13.75 C0 9.63, 0 5.52, 0 0" stroke="#000000" stroke-width="1" fill="none"></path></g><g stroke-linecap="round" transform="translate(252.5 164.62499999999997) rotate(0 20 6.875)"><path d="M0 0 L40 0 L40 13.75 L0 13.75" stroke="none" stroke-width="0" fill="#40c057"></path><path d="M0 0 C10.67 0, 21.33 0, 40 0 M0 0 C13.76 0, 27.53 0, 40 0 M40 0 C40 5.44, 40 10.88, 40 13.75 M40 0 C40 5.12, 40 10.24, 40 13.75 M40 13.75 C24.45 13.75, 8.9 13.75, 0 13.75 M40 13.75 C30.01 13.75, 20.02 13.75, 0 13.75 M0 13.75 C0 8.31, 0 2.87, 0 0 M0 13.75 C0 9.47, 0 5.2, 0 0" stroke="#000000" stroke-width="1" fill="none"></path></g><g stroke-linecap="round" transform="translate(253.75 263.375) rotate(0 20 6.875)"><path d="M0 0 L40 0 L40 13.75 L0 13.75" stroke="none" stroke-width="0" fill="#40c057"></path><path d="M0 0 C11.52 0, 23.05 0, 40 0 M0 0 C10.55 0, 21.11 0, 40 0 M40 0 C40 4.46, 40 8.92, 40 13.75 M40 0 C40 2.92, 40 5.83, 40 13.75 M40 13.75 C31.29 13.75, 22.58 13.75, 0 13.75 M40 13.75 C28.48 13.75, 16.95 13.75, 0 13.75 M0 13.75 C0 10.1, 0 6.45, 0 0 M0 13.75 C0 10.34, 0 6.94, 0 0" stroke="#000000" stroke-width="1" fill="none"></path></g><g stroke-linecap="round" transform="translate(351.25 130.87499999999997) rotate(0 20 6.875)"><path d="M0 0 L40 0 L40 13.75 L0 13.75" stroke="none" stroke-width="0" fill="#fa5252"></path><path d="M0 0 C10.25 0, 20.49 0, 40 0 M0 0 C10.24 0, 20.48 0, 40 0 M40 0 C40 5.42, 40 10.84, 40 13.75 M40 0 C40 5.48, 40 10.96, 40 13.75 M40 13.75 C30.96 13.75, 21.92 13.75, 0 13.75 M40 13.75 C31.22 13.75, 22.44 13.75, 0 13.75 M0 13.75 C0 9.32, 0 4.9, 0 0 M0 13.75 C0 8.31, 0 2.87, 0 0" stroke="#000000" stroke-width="1" fill="none"></path></g><g stroke-linecap="round" transform="translate(301.25 368.375) rotate(0 20 6.875)"><path d="M0 0 L40 0 L40 13.75 L0 13.75" stroke="none" stroke-width="0" fill="#fab005"></path><path d="M0 0 C9.36 0, 18.73 0, 40 0 M0 0 C10.33 0, 20.67 0, 40 0 M40 0 C40 4.44, 40 8.88, 40 13.75 M40 0 C40 4.63, 40 9.26, 40 13.75 M40 13.75 C28.62 13.75, 17.23 13.75, 0 13.75 M40 13.75 C29.32 13.75, 18.64 13.75, 0 13.75 M0 13.75 C0 10.89, 0 8.03, 0 0 M0 13.75 C0 9.35, 0 4.95, 0 0" stroke="#000000" stroke-width="1" fill="none"></path></g><g transform="translate(222.5 530) rotate(0 7 13)"><text x="0" y="18" font-family="Virgil, Segoe UI Emoji" font-size="20px" fill="#000000" text-anchor="start" style="white-space: pre;" direction="ltr">A</text></g><g transform="translate(268.75 527.5) rotate(0 6.5 13)"><text x="0" y="18" font-family="Virgil, Segoe UI Emoji" font-size="20px" fill="#000000" text-anchor="start" style="white-space: pre;" direction="ltr">S</text></g><g transform="translate(210 530.6803577976581) rotate(0 112.5 13)"><text x="112.5" y="18" font-family="Virgil, Segoe UI Emoji" font-size="20px" fill="#000000" text-anchor="middle" style="white-space: pre;" direction="ltr">J</text></g><g transform="translate(363.75 526.25) rotate(0 6.5 13)"><text x="0" y="18" font-family="Virgil, Segoe UI Emoji" font-size="20px" fill="#000000" text-anchor="start" style="white-space: pre;" direction="ltr">K</text></g><g transform="translate(408.75 531.25) rotate(0 6.5 13)"><text x="0" y="18" font-family="Virgil, Segoe UI Emoji" font-size="20px" fill="#000000" text-anchor="start" style="white-space: pre;" direction="ltr">L</text></g><g stroke-linecap="round"><g transform="translate(215.95248777769206 243.99999999999997) rotate(0 -33.80712097361268 33.721590909090935)"><path d="M0 0 C-11.27 11.24, -56.35 56.2, -67.61 67.44" stroke="#000000" stroke-width="1.5" fill="none" stroke-dasharray="8 9"></path></g><g transform="translate(215.95248777769206 243.99999999999997) rotate(0 -33.80712097361268 33.721590909090935)"><path d="M-67.61 67.44 L-62.47 53.35 L-53.51 62.33 L-67.61 67.44" stroke="none" stroke-width="0" fill="#000000" fill-rule="evenodd"></path><path d="M-67.61 67.44 C-66.26 63.74, -64.91 60.04, -62.47 53.35 M-62.47 53.35 C-60.03 55.8, -57.59 58.24, -53.51 62.33 M-53.51 62.33 C-57 63.6, -60.49 64.86, -67.61 67.44 M-67.61 67.44 C-67.61 67.44, -67.61 67.44, -67.61 67.44" stroke="#000000" stroke-width="1.5" fill="none"></path></g></g><g stroke-linecap="round" transform="translate(71.25 324.625) rotate(0 50.909090909090935 17.5)"><path d="M0 0 L101.82 0 L101.82 35 L0 35" stroke="none" stroke-width="0" fill="#4c6ef5"></path><path d="M0 0 C40.05 0, 80.09 0, 101.82 0 M0 0 C28.26 0, 56.52 0, 101.82 0 M101.82 0 C101.82 8.2, 101.82 16.4, 101.82 35 M101.82 0 C101.82 11.03, 101.82 22.07, 101.82 35 M101.82 35 C67.68 35, 33.53 35, 0 35 M101.82 35 C71.19 35, 40.56 35, 0 35 M0 35 C0 21.09, 0 7.17, 0 0 M0 35 C0 23.62, 0 12.24, 0 0" stroke="#000000" stroke-width="1" fill="none"></path></g><g stroke-linecap="round"><g transform="translate(185.65497436374426 527.7811233654804) rotate(0 0.3572845804561382 15.075815884917972)"><path d="M-0.61 -0.33 C-0.24 4.96, 1 25.47, 1.23 30.74 M1.27 -1.55 C1.58 3.94, 0.54 26.05, 0.28 31.7" stroke="#000000" stroke-width="1" fill="none"></path></g><g transform="translate(185.65497436374426 527.7811233654804) rotate(0 0.3572845804561382 15.075815884917972)"><path d="M13.95 -1.24 C9.76 -1.75, 7.26 -1.54, -0.76 0.55 M14.07 -0.73 C11.02 -1.45, 6.87 -1.32, -1.12 -0.2" stroke="#000000" stroke-width="1" fill="none"></path></g><g transform="translate(185.65497436374426 527.7811233654804) rotate(0 0.3572845804561382 15.075815884917972)"><path d="M-15.99 0.6 C-13.74 -0.16, -9.82 -0.34, -0.76 0.55 M-15.87 1.11 C-11.13 0.13, -7.46 -0.21, -1.12 -0.2" stroke="#000000" stroke-width="1" fill="none"></path></g><g transform="translate(185.65497436374426 527.7811233654804) rotate(0 0.3572845804561382 15.075815884917972)"><path d="M-15.12 31.03 C-12.87 30.62, -8.95 30.78, 0.13 32.58 M-15 31.54 C-10.23 30.98, -6.56 31.06, -0.22 31.82" stroke="#000000" stroke-width="1" fill="none"></path></g><g transform="translate(185.65497436374426 527.7811233654804) rotate(0 0.3572845804561382 15.075815884917972)"><path d="M14.85 32.38 C10.67 31.52, 8.17 31.4, 0.13 32.58 M14.97 32.89 C11.9 31.75, 7.75 31.47, -0.22 31.82" stroke="#000000" stroke-width="1" fill="none"></path></g></g><g transform="translate(143.5 533.5) rotate(0 14 13)"><text x="0" y="18" font-family="Virgil, Segoe UI Emoji" font-size="20px" fill="#000000" text-anchor="start" style="white-space: pre;" direction="ltr">40</text></g><g stroke-linecap="round"><g transform="translate(45 322.75) rotate(0 0.625 19.375)"><path d="M0 0 C0.21 6.46, 1.04 32.29, 1.25 38.75 M0 0 C0.21 6.46, 1.04 32.29, 1.25 38.75" stroke="#000000" stroke-width="1" fill="none"></path></g><g transform="translate(45 322.75) rotate(0 0.625 19.375)"><path d="M14.99 -0.48 C9.97 -0.32, 4.96 -0.16, 0 0 M14.99 -0.48 C10.25 -0.33, 5.51 -0.18, 0 0" stroke="#000000" stroke-width="1" fill="none"></path></g><g transform="translate(45 322.75) rotate(0 0.625 19.375)"><path d="M-14.99 0.48 C-9.97 0.32, -4.96 0.16, 0 0 M-14.99 0.48 C-10.25 0.33, -5.51 0.18, 0 0" stroke="#000000" stroke-width="1" fill="none"></path></g><g transform="translate(45 322.75) rotate(0 0.625 19.375)"><path d="M-13.74 39.23 C-8.72 39.07, -3.71 38.91, 1.25 38.75 M-13.74 39.23 C-9 39.08, -4.26 38.93, 1.25 38.75" stroke="#000000" stroke-width="1" fill="none"></path></g><g transform="translate(45 322.75) rotate(0 0.625 19.375)"><path d="M16.24 38.27 C11.22 38.43, 6.21 38.59, 1.25 38.75 M16.24 38.27 C11.5 38.42, 6.76 38.57, 1.25 38.75" stroke="#000000" stroke-width="1" fill="none"></path></g></g><g stroke-linecap="round"><g transform="translate(171.25 387.75) rotate(0 -50 -0.625)"><path d="M0 0 C-16.67 -0.21, -83.33 -1.04, -100 -1.25 M0 0 C-16.67 -0.21, -83.33 -1.04, -100 -1.25" stroke="#000000" stroke-width="1" fill="none"></path></g><g transform="translate(171.25 387.75) rotate(0 -50 -0.625)"><path d="M-0.19 15 C-0.15 11.97, -0.11 8.94, 0 0 M-0.19 15 C-0.13 10.1, -0.07 5.21, 0 0" stroke="#000000" stroke-width="1" fill="none"></path></g><g transform="translate(171.25 387.75) rotate(0 -50 -0.625)"><path d="M0.19 -15 C0.15 -11.97, 0.11 -8.94, 0 0 M0.19 -15 C0.13 -10.1, 0.07 -5.21, 0 0" stroke="#000000" stroke-width="1" fill="none"></path></g><g transform="translate(171.25 387.75) rotate(0 -50 -0.625)"><path d="M-99.81 -16.25 C-99.85 -13.22, -99.89 -10.19, -100 -1.25 M-99.81 -16.25 C-99.87 -11.35, -99.93 -6.46, -100 -1.25" stroke="#000000" stroke-width="1" fill="none"></path></g><g transform="translate(171.25 387.75) rotate(0 -50 -0.625)"><path d="M-100.19 13.75 C-100.15 10.72, -100.11 7.69, -100 -1.25 M-100.19 13.75 C-100.13 8.85, -100.07 3.96, -100 -1.25" stroke="#000000" stroke-width="1" fill="none"></path></g></g><g transform="translate(111.25 403.75) rotate(0 14 13)"><text x="0" y="18" font-family="Virgil, Segoe UI Emoji" font-size="20px" fill="#000000" text-anchor="start" style="white-space: pre;" direction="ltr">40</text></g><g transform="translate(10 327.5) rotate(0 10 13)"><text x="0" y="18" font-family="Virgil, Segoe UI Emoji" font-size="20px" fill="#000000" text-anchor="start" style="white-space: pre;" direction="ltr">10</text></g></svg>